# xmcd
#
# Track frame offsets: 
#        150
#        25689
#        46023
#        59567
#        79369
#        92560
#        113679
#        136666
#        152200
#        182049
#        204341
#        224382
#        239569
#        262083
#        281522
#        309581
#        330528
#
# Disc length: 4682 seconds
#
# Revision: 0
# Processed by: cddbd v1.5.2PL0 Copyright (c) Steve Scherf et al.
# Submitted via: ExactAudioCopy v0.95b4
#
DISCID=ee124811
DTITLE=John Lee Hooker - Best Of Friends
DYEAR=1900
DGENRE=Blues
TTITLE0=The Healer (with Santana)
TTITLE1=I'm In The Mood (with Bonnie Raitt)
TTITLE2=Think Twice Before You Go (with Los Lobos)
TTITLE3=That's Alright (with Charlie Musselwhite)
TTITLE4=I Want To Hug You (with Johnny Johnson)
TTITLE5=Mr. Lucky (with The Robert Cray Band)
TTITLE6=Backstabbers (with Albert Collins)
TTITLE7=This Is Hip (with Ry Cooder, Jim Keltner, J. Johnson)
TTITLE8=Highway 13 (with John Hammond)
TTITLE9=Stripped Me Naked (with Santana)
TTITLE10=Susie (with Johnny Winter)
TTITLE11=Crawling Kingsnake (with Keith Richards)
TTITLE12=Father Was A Jockey (with John Hammond)
TTITLE13=Boom Boom (with Jimmy Vaughan)
TTITLE14=Same Old Blues Again (with Robert Cray)
TTITLE15=Trick Bug (Shopping For My Tombstone)
TTITLE16=Boogie At Russian Hill (with Albert Collins)
EXTD=
EXTT0=
EXTT1=
EXTT2=
EXTT3=
EXTT4=
EXTT5=
EXTT6=
EXTT7=
EXTT8=
EXTT9=
EXTT10=
EXTT11=
EXTT12=
EXTT13=
EXTT14=
EXTT15=
EXTT16=
PLAYORDER=
